<svg width="21" height="19" viewBox="0 0 21 19" fill="none" xmlns="http://www.w3.org/2000/svg">
<path fill-rule="evenodd" clip-rule="evenodd" d="M19.0595 18.4075L11.0801 10.4215C10.9305 10.2675 10.8557 10.0904 10.8557 9.89017C10.8575 9.6849 10.9378 9.48808 11.0801 9.34017L19.4126 1.20237C19.8343 0.853308 20.209 0.853308 20.5368 1.20237C20.8653 1.55071 20.8653 1.91004 20.5368 2.28037L12.7488 9.89017L20.1782 17.3295C20.4393 17.7064 20.4151 18.0492 20.1056 18.358C19.7961 18.666 19.4474 18.6825 19.0595 18.4075ZM9.1595 18.4075L1.1801 10.4215C1.0305 10.2675 0.955704 10.0904 0.955704 9.89017C0.957451 9.6849 1.03775 9.48808 1.1801 9.34017L9.5126 1.20237C9.93427 0.853308 10.309 0.853308 10.6368 1.20237C10.9661 1.55071 10.9661 1.91004 10.6368 2.28037L2.8488 9.89017L10.2782 17.3295C10.5385 17.7064 10.5143 18.0492 10.2056 18.358C9.89614 18.666 9.54744 18.6825 9.1595 18.4075Z" fill="#D4D6D8"/>
</svg>
