<svg width="48" height="48" viewBox="10 10 28 28" fill="none" xmlns="http://www.w3.org/2000/svg">
<path d="M37.3333 10.4615H33.3333V9.23077C33.3333 8.90435 33.1929 8.5913 32.9428 8.36048C32.6928 8.12967 32.3536 8 32 8C31.6464 8 31.3072 8.12967 31.0572 8.36048C30.8071 8.5913 30.6667 8.90435 30.6667 9.23077V10.4615H17.3333V9.23077C17.3333 8.90435 17.1929 8.5913 16.9428 8.36048C16.6928 8.12967 16.3536 8 16 8C15.6464 8 15.3072 8.12967 15.0572 8.36048C14.8071 8.5913 14.6667 8.90435 14.6667 9.23077V10.4615H10.6667C9.95964 10.4622 9.28177 10.7217 8.78182 11.1832C8.28187 11.6447 8.0007 12.2704 8 12.9231V37.5385C8.0007 38.1911 8.28187 38.8168 8.78182 39.2783C9.28177 39.7398 9.95964 39.9994 10.6667 40H37.3333C38.0404 39.9994 38.7182 39.7398 39.2182 39.2783C39.7181 38.8168 39.9993 38.1911 40 37.5385V12.9231C39.9993 12.2704 39.7181 11.6447 39.2182 11.1832C38.7182 10.7217 38.0404 10.4622 37.3333 10.4615ZM20.001 34.4615C19.4759 34.4628 18.9557 34.3681 18.4705 34.1827C17.9853 33.9974 17.5448 33.7251 17.1742 33.3816C16.924 33.1509 16.7834 32.838 16.7832 32.5115C16.783 32.1851 16.9232 31.872 17.1731 31.641C17.423 31.4101 17.7621 31.2802 18.1157 31.28C18.4693 31.2799 18.8086 31.4093 19.0588 31.64C19.2139 31.783 19.4048 31.8885 19.6146 31.9472C19.8244 32.0058 20.0467 32.0158 20.2617 31.9762C20.4767 31.9366 20.6778 31.8488 20.8472 31.7203C21.0166 31.5919 21.1491 31.4269 21.233 31.2399C21.3168 31.0529 21.3494 30.8497 21.3279 30.6483C21.3063 30.4469 21.2313 30.2535 21.1095 30.0853C20.9877 29.917 20.8228 29.7791 20.6294 29.6837C20.4361 29.5884 20.2202 29.5385 20.001 29.5385H20.0002C19.9587 29.5385 19.9172 29.5362 19.8757 29.5326C19.8625 29.5315 19.8495 29.5296 19.8364 29.5281C19.8087 29.5249 19.781 29.5212 19.7534 29.5165C19.738 29.5138 19.7228 29.5107 19.7076 29.5076C19.6825 29.5024 19.6576 29.4964 19.6327 29.4898C19.6176 29.4858 19.6025 29.4819 19.5876 29.4774C19.5625 29.4698 19.5377 29.4612 19.513 29.4522C19.4996 29.4473 19.486 29.4429 19.4728 29.4377C19.4441 29.4262 19.4159 29.4133 19.3877 29.3998C19.3796 29.3959 19.371 29.3926 19.363 29.3885C19.3278 29.3708 19.2933 29.3514 19.2594 29.3305C19.2481 29.3234 19.2375 29.3155 19.2263 29.3081C19.2068 29.2952 19.187 29.2828 19.1681 29.2688C19.1656 29.267 19.1635 29.2649 19.1611 29.2631C19.141 29.248 19.1221 29.2317 19.103 29.2155C19.089 29.2038 19.0744 29.1926 19.0611 29.1804C19.0483 29.1686 19.0366 29.1558 19.0243 29.1435C18.8629 28.9828 18.7507 28.7854 18.6991 28.5716C18.6982 28.5677 18.6968 28.5639 18.6959 28.56C18.6912 28.5392 18.6885 28.5179 18.685 28.4968C18.6818 28.4777 18.6777 28.4587 18.6755 28.4395C18.6737 28.4236 18.6734 28.4075 18.6722 28.3915C18.6703 28.3663 18.6683 28.3411 18.6681 28.3158C18.668 28.3131 18.6676 28.3104 18.6676 28.3077C18.6676 28.2949 18.6693 28.2825 18.6698 28.2698C18.6706 28.2443 18.6714 28.2189 18.6739 28.1934C18.6756 28.1762 18.6785 28.1594 18.6811 28.1424C18.6844 28.1195 18.6877 28.0966 18.6924 28.0739C18.6962 28.0556 18.7012 28.0378 18.7058 28.0198C18.7113 27.9988 18.7166 27.9778 18.7233 27.957C18.7293 27.9384 18.7364 27.9203 18.7433 27.902C18.7507 27.8825 18.758 27.863 18.7664 27.8437C18.7747 27.8249 18.7842 27.8067 18.7935 27.7883C18.8026 27.7704 18.8114 27.7524 18.8215 27.7347C18.8324 27.7156 18.8446 27.6971 18.8565 27.6786C18.8669 27.6626 18.8768 27.6465 18.888 27.6308C18.9021 27.6111 18.9175 27.5923 18.9328 27.5734C18.9421 27.5619 18.95 27.55 18.9598 27.5388L19.8935 26.4615H18.001C17.6474 26.4615 17.3082 26.3319 17.0582 26.1011C16.8081 25.8702 16.6676 25.5572 16.6676 25.2308C16.6676 24.9044 16.8081 24.5913 17.0582 24.3605C17.3082 24.1297 17.6474 24 18.001 24H22.6676C22.9188 24 23.1649 24.0655 23.3775 24.1889C23.5901 24.3123 23.7606 24.4887 23.8694 24.6976C23.9782 24.9066 24.0209 25.1397 23.9925 25.37C23.964 25.6004 23.8657 25.8187 23.7088 25.9997L22.2306 27.7053C22.9425 28.1463 23.4819 28.7868 23.7694 29.5323C24.0569 30.2778 24.0773 31.0889 23.8274 31.8459C23.5776 32.6029 23.0709 33.2658 22.3819 33.7367C21.6929 34.2077 20.8583 34.4618 20.001 34.4615ZM30.6676 33.2308C30.6676 33.5572 30.5272 33.8702 30.2771 34.1011C30.0271 34.3319 29.6879 34.4615 29.3343 34.4615C28.9807 34.4615 28.6415 34.3319 28.3915 34.1011C28.1415 33.8702 28.001 33.5572 28.001 33.2308V27.6923L27.4676 28.0616C27.1847 28.2574 26.8291 28.3415 26.479 28.2953C26.1289 28.2492 25.8131 28.0765 25.6009 27.8154C25.3887 27.5542 25.2977 27.2259 25.3477 26.9028C25.3977 26.5797 25.5848 26.2881 25.8677 26.0922L28.5343 24.2461C28.7324 24.109 28.968 24.0255 29.2146 24.005C29.4612 23.9845 29.7091 24.0277 29.9306 24.13C30.1521 24.2322 30.3383 24.3893 30.4685 24.5837C30.5987 24.7782 30.6676 25.0022 30.6676 25.2308V33.2308ZM37.3333 17.8462H10.6667V12.9231H14.6667V14.1538C14.6667 14.4803 14.8071 14.7933 15.0572 15.0241C15.3072 15.2549 15.6464 15.3846 16 15.3846C16.3536 15.3846 16.6928 15.2549 16.9428 15.0241C17.1929 14.7933 17.3333 14.4803 17.3333 14.1538V12.9231H30.6667V14.1538C30.6667 14.4803 30.8071 14.7933 31.0572 15.0241C31.3072 15.2549 31.6464 15.3846 32 15.3846C32.3536 15.3846 32.6928 15.2549 32.9428 15.0241C33.1929 14.7933 33.3333 14.4803 33.3333 14.1538V12.9231H37.3333V17.8462Z" fill="#D4D6D8"/>
</svg>
