<svg width="48" height="48" viewBox="10 10 28 28" fill="none" xmlns="http://www.w3.org/2000/svg">
<path d="M20.0009 22.6667C21.0558 22.6667 22.0869 22.3539 22.964 21.7678C23.841 21.1818 24.5246 20.3489 24.9283 19.3743C25.332 18.3998 25.4376 17.3274 25.2318 16.2929C25.026 15.2583 24.5181 14.308 23.7722 13.5621C23.0263 12.8162 22.076 12.3083 21.0414 12.1025C20.0069 11.8967 18.9345 12.0023 17.96 12.406C16.9854 12.8096 16.1525 13.4932 15.5664 14.3703C14.9804 15.2474 14.6676 16.2785 14.6676 17.3333C14.6676 18.7478 15.2295 20.1044 16.2297 21.1046C17.2299 22.1048 18.5864 22.6667 20.0009 22.6667Z" fill="#D4D6D8"/>
<path d="M30.6676 25.3333C31.4587 25.3333 32.2321 25.0987 32.8899 24.6592C33.5477 24.2197 34.0604 23.595 34.3631 22.8641C34.6659 22.1332 34.7451 21.3289 34.5907 20.553C34.4364 19.7771 34.0554 19.0643 33.496 18.5049C32.9366 17.9455 32.2239 17.5645 31.448 17.4102C30.672 17.2559 29.8678 17.3351 29.1369 17.6378C28.406 17.9406 27.7813 18.4533 27.3417 19.1111C26.9022 19.7689 26.6676 20.5422 26.6676 21.3333C26.6676 22.3942 27.089 23.4116 27.8392 24.1618C28.5893 24.9119 29.6067 25.3333 30.6676 25.3333Z" fill="#D4D6D8"/>
<path d="M36.0009 34.6664C36.3546 34.6664 36.6937 34.5259 36.9437 34.2759C37.1938 34.0258 37.3343 33.6867 37.3343 33.3331C37.3332 32.0869 36.9829 30.866 36.3231 29.8089C35.6633 28.7518 34.7204 27.9008 33.6014 27.3524C32.4824 26.804 31.2321 26.5802 29.9924 26.7064C28.7527 26.8326 27.5731 27.3038 26.5876 28.0664C25.2816 26.7656 23.6197 25.8805 21.8114 25.523C20.0031 25.1654 18.1294 25.3513 16.4266 26.0573C14.7238 26.7632 13.2682 27.9575 12.2433 29.4897C11.2184 31.0218 10.6701 32.8231 10.6676 34.6664C10.6676 35.02 10.8081 35.3592 11.0581 35.6092C11.3082 35.8593 11.6473 35.9997 12.0009 35.9997H28.0009C28.3546 35.9997 28.6937 35.8593 28.9437 35.6092C29.1938 35.3592 29.3343 35.02 29.3343 34.6664" fill="#D4D6D8"/>
</svg>
