<svg width="48" height="48" viewBox="8 8 32 32" fill="none" xmlns="http://www.w3.org/2000/svg">
<path d="M25.5627 30.3259H22.7646C20.7851 30.3259 19.1627 28.6589 19.1627 26.605C19.1627 25.9947 19.6688 25.4887 20.279 25.4887C20.8892 25.4887 21.3953 25.9947 21.3953 26.605C21.3953 27.4236 22.0055 28.0933 22.7646 28.0933H25.5627C26.1432 28.0933 26.6046 27.5724 26.6046 26.9324C26.6046 26.1287 26.3813 26.0096 25.8753 25.831L21.3953 24.2682C20.4427 23.9408 19.1627 23.2412 19.1627 21.0533C19.1627 19.1929 20.6362 17.6599 22.4371 17.6599H25.2353C27.2148 17.6599 28.8371 19.3269 28.8371 21.3808C28.8371 21.991 28.3311 22.4971 27.7209 22.4971C27.1106 22.4971 26.6046 21.991 26.6046 21.3808C26.6046 20.5622 25.9943 19.8924 25.2353 19.8924H22.4371C21.8567 19.8924 21.3953 20.4134 21.3953 21.0533C21.3953 21.8571 21.6185 21.9761 22.1246 22.1547L26.6046 23.7175C27.5571 24.045 28.8371 24.7445 28.8371 26.9324C28.8371 28.8078 27.3637 30.3259 25.5627 30.3259Z" fill="#D4D6D8"/>
<path d="M23.9999 31.8139C23.3897 31.8139 22.8837 31.3079 22.8837 30.6976V17.3023C22.8837 16.6921 23.3897 16.186 23.9999 16.186C24.6102 16.186 25.1162 16.6921 25.1162 17.3023V30.6976C25.1162 31.3079 24.6102 31.8139 23.9999 31.8139Z" fill="#D4D6D8"/>
<path d="M24 40C15.174 40 8 32.826 8 24C8 15.174 15.174 8 24 8C24.6102 8 25.1163 8.50605 25.1163 9.11628C25.1163 9.72651 24.6102 10.2326 24 10.2326C16.4093 10.2326 10.2326 16.4093 10.2326 24C10.2326 31.5907 16.4093 37.7674 24 37.7674C31.5907 37.7674 37.7674 31.5907 37.7674 24C37.7674 23.3898 38.2735 22.8837 38.8837 22.8837C39.494 22.8837 40 23.3898 40 24C40 32.826 32.826 40 24 40Z" fill="#D4D6D8"/>
<path d="M37.3952 17.6745H31.4417C30.8315 17.6745 30.3254 17.1684 30.3254 16.5582V10.6047C30.3254 9.99447 30.8315 9.48842 31.4417 9.48842C32.052 9.48842 32.558 9.99447 32.558 10.6047V15.4419H37.3952C38.0054 15.4419 38.5115 15.948 38.5115 16.5582C38.5115 17.1684 38.0054 17.6745 37.3952 17.6745Z" fill="#D4D6D8"/>
<path d="M31.4411 17.6743C31.1583 17.6743 30.8755 17.5701 30.6522 17.3469C30.2206 16.9153 30.2206 16.2008 30.6522 15.7692L38.0941 8.32736C38.5257 7.89573 39.2401 7.89573 39.6717 8.32736C40.1034 8.75898 40.1034 9.4734 39.6717 9.90503L32.2299 17.3469C32.0066 17.5701 31.7238 17.6743 31.4411 17.6743Z" fill="#D4D6D8"/>
</svg>
