<svg width="25" height="25" viewBox="0 0 25 25" fill="none" xmlns="http://www.w3.org/2000/svg">
<path d="M14.429 5.44983L17.281 8.30183M7.125 7.60583H4.125C3.85978 7.60583 3.60543 7.71119 3.41789 7.89872C3.23036 8.08626 3.125 8.34061 3.125 8.60583V18.6058C3.125 18.871 3.23036 19.1254 3.41789 19.3129C3.60543 19.5005 3.85978 19.6058 4.125 19.6058H15.125C15.3902 19.6058 15.6446 19.5005 15.8321 19.3129C16.0196 19.1254 16.125 18.871 16.125 18.6058V14.1058M18.534 4.19583C18.7214 4.38313 18.87 4.60552 18.9714 4.85028C19.0728 5.09505 19.125 5.35739 19.125 5.62233C19.125 5.88727 19.0728 6.14961 18.9714 6.39438C18.87 6.63914 18.7214 6.86152 18.534 7.04883L11.69 13.8928L8.125 14.6058L8.838 11.0408L15.682 4.19683C15.8692 4.00937 16.0914 3.86064 16.3361 3.75917C16.5808 3.6577 16.8431 3.60547 17.108 3.60547C17.3729 3.60547 17.6352 3.6577 17.8799 3.75917C18.1246 3.86064 18.3468 4.00937 18.534 4.19683V4.19583Z" stroke="#343333" stroke-opacity="0.8" stroke-width="2" stroke-linecap="round" stroke-linejoin="round"/>
</svg>
