<svg width="48" height="48" viewBox="8 8 32 32" fill="none" xmlns="http://www.w3.org/2000/svg">
<path d="M20.7228 21.5403C20.7228 22.373 20.9541 22.4964 21.4784 22.6815L22.2649 22.9591V20.3374H21.8023C21.2163 20.3374 20.7228 20.8771 20.7228 21.5403Z" fill="#D4D6D8"/>
<path d="M24.5782 28.8204H25.0409C25.6423 28.8204 26.1204 28.2807 26.1204 27.6175C26.1204 26.7848 25.8891 26.6614 25.3648 26.4763L24.5782 26.1987V28.8204Z" fill="#D4D6D8"/>
<path d="M35.1113 14.5233L31.9499 17.6848C31.7186 17.9161 31.4255 18.024 31.1325 18.024C30.8395 18.024 30.5465 17.9161 30.3152 17.6848C29.868 17.2375 29.868 16.4973 30.3152 16.0501L33.4766 12.8886C30.7624 10.5754 27.2617 9.15658 23.4217 9.15658C14.9089 9.15658 8 16.0655 8 24.5783C8 33.091 14.9089 40 23.4217 40C31.9345 40 38.8434 33.091 38.8434 24.5783C38.8434 20.7383 37.4246 17.2375 35.1113 14.5233ZM26.1205 24.3007C27.1075 24.6554 28.4337 25.3648 28.4337 27.6318C28.4337 29.5595 26.907 31.1479 25.041 31.1479H24.5783V31.5334C24.5783 32.1657 24.054 32.6901 23.4217 32.6901C22.7894 32.6901 22.2651 32.1657 22.2651 31.5334V31.1479H22.1417C20.0906 31.1479 18.4096 29.4207 18.4096 27.2925C18.4096 26.6448 18.934 26.1204 19.5663 26.1204C20.1986 26.1204 20.7229 26.6448 20.7229 27.2771C20.7229 28.1253 21.3552 28.8192 22.1417 28.8192H22.2651V25.3956L20.7229 24.8559C19.7359 24.5012 18.4096 23.7918 18.4096 21.5248C18.4096 19.5971 19.9364 18.0086 21.8024 18.0086H22.2651V17.6385C22.2651 17.0062 22.7894 16.4819 23.4217 16.4819C24.054 16.4819 24.5783 17.0062 24.5783 17.6385V18.024H24.7017C26.7528 18.024 28.4337 19.7513 28.4337 21.8795C28.4337 22.5118 27.9094 23.0361 27.2771 23.0361C26.6448 23.0361 26.1205 22.5118 26.1205 21.8795C26.1205 21.0313 25.4882 20.3373 24.7017 20.3373H24.5783V23.7609L26.1205 24.3007Z" fill="#D4D6D8"/>
<path d="M39.9076 8.7094C39.7842 8.43181 39.5683 8.20048 39.2753 8.07711C39.1365 8.03084 38.9977 8 38.8435 8H32.6748C32.0425 8 31.5182 8.52434 31.5182 9.15663C31.5182 9.78892 32.0425 10.3133 32.6748 10.3133H36.0522L33.4767 12.8887C34.0628 13.3976 34.6025 13.9373 35.1114 14.5234L37.6869 11.948V15.3253C37.6869 15.9576 38.2112 16.4819 38.8435 16.4819C39.4758 16.4819 40.0001 15.9576 40.0001 15.3253V9.15663C40.0001 9.00241 39.9693 8.86361 39.9076 8.7094Z" fill="#D4D6D8"/>
</svg>
