<svg width="48" height="48" viewBox="10 10 28 28" fill="none" xmlns="http://www.w3.org/2000/svg">
<path d="M20.1797 35.6978V31.6208C20.1797 30.5801 21.0295 29.7364 22.0779 29.7364H25.9101C26.4136 29.7364 26.8964 29.9349 27.2524 30.2883C27.6083 30.6417 27.8083 31.121 27.8083 31.6208V35.6978C27.8052 36.1305 27.9761 36.5465 28.2831 36.8536C28.5902 37.1606 29.008 37.3333 29.4439 37.3333H32.0584C33.2795 37.3365 34.4516 36.8571 35.3162 36.0011C36.1808 35.145 36.6666 33.9826 36.6666 32.7704V21.1558C36.6666 20.1766 36.2294 19.2478 35.4728 18.6196L26.5787 11.5678C25.0315 10.3314 22.8148 10.3713 21.3138 11.6626L12.6227 18.6196C11.8303 19.2293 11.3567 20.1608 11.3333 21.1558V32.7586C11.3333 35.2851 13.3965 37.3333 15.9415 37.3333H18.4964C19.4016 37.3333 20.1373 36.6083 20.1439 35.7096L20.1797 35.6978Z" fill="#D4D6D8"/>
</svg>
