<svg width="51" height="51" viewBox="0 0 51 51" fill="none" xmlns="http://www.w3.org/2000/svg">
<path d="M6.52604 1.00544C2.98856 1.00544 1 2.83439 1 6.57127V45.0932C1 48.5886 2.78821 50.4188 6.32244 50.4188H45.007C48.5421 50.4188 50.3326 48.6802 50.3326 45.0932V6.57127C50.3326 2.92544 48.5421 1.00544 44.8965 1.00544C44.8961 1.00544 6.51389 0.993201 6.52604 1.00544Z" fill="#235C8F" stroke="#EEEEEE" stroke-width="0.586078"/>
<path fill-rule="evenodd" clip-rule="evenodd" d="M35.1232 33.0175C36.1946 33.8355 37.4005 34.8997 37.3473 36.3739C37.4014 37.2937 37.3698 38.227 37.5824 39.1299C38.2687 40.2089 38.8922 41.3855 39.0867 42.6613C39.1857 44.5068 37.7947 46.24 36.0791 46.7902C34.3043 47.1601 32.3372 46.7033 31.0359 45.4039C30.1727 44.6264 29.5382 43.4701 28.3279 43.1869C27.2281 42.8917 26.045 42.753 25.1074 42.045C24.1723 41.4459 23.5931 40.4707 23.0689 39.5247C22.4897 38.368 22.5499 36.9342 23.2762 35.8555C24.2746 34.1816 26.3595 33.5404 28.2152 33.6474C28.9955 33.7127 29.8211 33.7705 30.497 33.2879C31.3563 32.7784 32.2797 32.0457 33.3469 32.3316C33.9745 32.4503 34.5703 32.7022 35.1232 33.0175Z" fill="white"/>
<path fill-rule="evenodd" clip-rule="evenodd" d="M25.989 24.8074C26.7474 24.0901 27.9184 23.7054 28.9129 24.1379C29.625 24.4453 30.2097 25.0197 30.6065 25.6778C31.2485 27.0155 31.1557 28.5797 30.7956 29.9823C30.6324 30.6583 30.3894 31.3404 29.8925 31.8467C29.3428 32.4668 28.4833 32.7583 27.6682 32.6432C26.517 32.6495 25.433 31.9125 24.9551 30.8747C24.6632 30.2704 24.4839 29.6013 24.5347 28.9263C24.5781 27.4572 24.9445 25.8986 25.989 24.8074Z" fill="white"/>
<path fill-rule="evenodd" clip-rule="evenodd" d="M37.748 23.317C37.748 23.317 39.1548 24.1639 38.8613 26.4318C38.8613 26.4318 38.7033 27.9219 37.449 29.6094C37.449 29.6094 36.3448 31.4025 34.8295 31.5011C34.8295 31.5011 32.5748 31.9628 31.9562 29.1729C31.9562 29.1729 31.5297 27.2174 32.3561 25.3019C32.3561 25.3019 33.1942 23.3116 34.9856 22.8859C34.9856 22.8859 36.4866 22.5564 37.748 23.317Z" fill="white"/>
<path fill-rule="evenodd" clip-rule="evenodd" d="M44.9303 28.117C44.9303 28.117 46.3625 29.6619 44.9954 31.5353C44.9954 31.5353 44.1472 33.1885 42.3409 34.0802C42.3409 34.0802 40.3214 35.3035 38.9358 34.7426C38.9358 34.7426 37.2734 34.3447 37.5359 31.587C37.5359 31.587 38.2614 28.7114 40.3641 27.7339C40.3641 27.7339 43.1278 26.0729 44.9303 28.117Z" fill="white"/>
<path fill-rule="evenodd" clip-rule="evenodd" d="M46.1531 35.7086C46.8203 36.4419 46.9277 37.5722 46.5025 38.4535C46.1338 39.2534 45.506 39.9047 44.8338 40.4592C43.8091 41.245 42.5304 41.7046 41.2392 41.7363C40.2979 41.7022 39.5093 41.0111 39.1169 40.1897C38.9264 39.9041 38.9076 39.5662 38.9493 39.2349C39.0279 38.1155 39.5903 37.0299 40.5113 36.376C41.3406 35.7376 42.2569 35.1276 43.3086 34.9557C44.1282 34.788 45.0586 34.806 45.7567 35.3254C45.9049 35.435 46.0382 35.5645 46.1531 35.7086Z" fill="white"/>
<path d="M16.9661 36.7962C15.6899 34.7312 17.9782 32.0563 19.5423 33.7847C20.0285 34.3219 19.8022 34.3812 18.7188 34.0004C17.7538 33.6612 17.7538 33.6612 17.6433 34.993C17.5825 35.7255 17.5178 36.4358 17.4995 36.5715C17.4597 36.8666 17.1026 37.017 16.9661 36.7962ZM14.4968 34.3074C14.4418 34.2185 15.1462 33.6637 16.0621 33.0744C16.9781 32.4852 17.7275 31.8844 17.7275 31.7392C17.7275 31.5363 17.6341 31.5628 17.3244 31.8538C16.817 32.3305 16.6432 32.3333 16.714 31.8635C16.756 31.5851 17.0046 31.4218 17.7275 31.1979C18.2542 31.0348 18.8615 30.8062 19.077 30.69C19.6462 30.3832 19.7019 31.5 19.1483 32.1197C18.6274 32.7028 14.6587 34.5694 14.4968 34.3074ZM15.3982 32.2264C14.4947 31.1527 14.9819 30.2188 16.8843 29.3779C17.9616 28.9016 18.2179 28.648 17.9213 28.3513C17.779 28.209 17.7275 28.2119 17.7275 28.362C17.7275 28.4745 17.4924 28.6881 17.205 28.8367C16.6798 29.1083 16.3529 28.6257 16.8528 28.3167C18.5097 27.2927 19.643 27.3279 19.643 28.4034C19.643 29.9047 18.9898 30.6194 17.3337 30.9301C16.56 31.0752 16.3803 31.2702 16.305 32.0456C16.2286 32.8334 15.9548 32.8879 15.3982 32.2264ZM14.707 29.6502C13.732 28.5728 14.806 26.8433 16.8755 26.1582C18.7088 25.5514 19.2149 24.6575 18.0717 24.0457C17.7528 23.875 17.7275 23.9184 17.7275 24.6342C17.7275 25.3362 17.6797 25.4235 17.205 25.589C16.6826 25.7711 16.6826 25.7711 16.6826 24.9257C16.6826 24.0802 16.6826 24.0802 17.6839 23.7743C18.2346 23.6061 18.9159 23.3539 19.1978 23.2138C19.6849 22.9719 19.7303 22.9824 20.1108 23.4247C21.3603 24.8773 20.5822 26.5581 18.2932 27.3511C16.3877 28.0113 16.131 28.1781 16.1931 28.716C16.2354 29.0824 16.1217 29.2707 15.6736 29.5768C14.9855 30.0468 15.0607 30.041 14.707 29.6502ZM13.9923 26.0775C12.7717 24.4772 13.8513 22.9016 16.9834 21.7121C17.7959 21.4035 18.4023 21.0437 18.6941 20.6968C19.1214 20.189 19.1464 19.9945 18.8701 19.3274C18.7764 19.1012 18.9111 19.0261 19.5728 18.9353C20.0231 18.8736 20.5058 18.7282 20.6456 18.6123C20.9819 18.3331 21.3166 18.7774 21.4746 19.7129C21.7187 21.1573 20.6105 22.2808 18.0481 23.1869C15.8096 23.9785 15.1507 24.784 16.1622 25.4924C16.4958 25.7261 16.4703 25.7596 15.6237 26.1988C14.5098 26.7767 14.5265 26.778 13.9923 26.0775ZM13.438 21.6845C11.6812 19.8217 13.8992 16.7447 17.0093 16.7301C19.2624 16.7196 21.8198 15.7871 21.8198 14.9761C21.8198 14.4217 21.3529 14.3542 20.7257 14.8179C19.234 15.9208 17.5506 14.5394 18.9507 13.3613C20.3972 12.1442 23.6483 13.2029 23.6483 14.8911C23.6483 16.7967 21.7585 18.0908 18.1718 18.6414C15.1287 19.1085 14.4162 19.7992 15.7874 20.953C16.2852 21.3719 16.2852 21.3719 15.3928 21.8392C14.2483 22.4384 14.141 22.4299 13.438 21.6845ZM16.6826 20.2167C16.6826 19.1719 16.6826 19.1719 17.205 19.1719C17.7162 19.1719 17.7275 19.1907 17.7275 20.0469C17.7275 20.879 17.4222 21.2616 16.7583 21.2616C16.7167 21.2616 16.6826 20.7914 16.6826 20.2167ZM12.1529 17.2744C9.65005 15.5934 10.2762 13.2181 13.3237 12.8331C14.9118 12.6325 16.474 13.8274 15.8744 14.7842C15.5855 15.2454 14.299 15.2723 13.7004 14.8298C12.9748 14.2933 12.5032 14.3512 12.5032 14.977C12.5032 15.5431 13.3632 16.0771 14.6487 16.309C15.314 16.429 15.314 16.429 14.4435 16.9261C13.9648 17.1995 13.5237 17.5032 13.4632 17.601C13.2836 17.8917 12.9472 17.8078 12.1529 17.2744ZM16.6236 12.9463C16.5608 11.1505 16.5092 8.99995 16.509 8.16733C16.5085 6.86336 16.4613 6.62044 16.1684 6.41526C14.6078 5.32218 16.1868 2.87363 17.8857 3.75218C18.8699 4.26114 18.9923 5.44207 18.1629 6.42776C17.7275 6.94521 17.7275 6.94521 17.7275 11.5783C17.7275 16.2115 17.7275 16.2115 17.2326 16.2115C16.7377 16.2115 16.7377 16.2115 16.6236 12.9463ZM11.8095 11.4979C11.5446 11.3232 11.2311 11.048 11.1129 10.8864C10.9113 10.6107 10.8516 10.6107 10.1511 10.8859C9.25687 11.2372 8.34301 10.9317 7.99353 10.1647C7.84309 9.83452 7.6622 9.72803 7.25177 9.72803C6.57712 9.72803 5.93492 9.29698 5.93492 8.84414C5.93492 8.57069 5.85169 8.5233 5.51832 8.60697C4.86385 8.77123 3.49695 7.87239 3.49695 7.27775C3.49695 7.21783 5.00544 7.12172 6.84916 7.06417C9.79297 6.97228 10.3687 6.90541 11.5752 6.5153C13.5135 5.88855 14.0404 5.91707 14.4864 6.67284C14.6816 7.00382 14.9924 7.32255 15.177 7.38114C15.8535 7.59586 15.662 11.5702 14.9685 11.7089C13.8595 11.9307 12.3088 11.8271 11.8095 11.4979ZM19.2457 11.6706C18.5618 11.4676 18.4668 7.56632 19.1416 7.39695C19.3776 7.33771 19.6203 7.13317 19.6808 6.94241C19.995 5.95262 20.7322 5.85393 22.8156 6.52279C24.0436 6.91704 24.605 6.98181 27.5518 7.06917C30.895 7.16828 30.895 7.16828 30.6399 7.66157C30.3226 8.27509 29.4499 8.74706 28.8917 8.60697C28.5893 8.53107 28.4751 8.57491 28.4751 8.76694C28.4751 9.23729 27.8133 9.72803 27.1789 9.72803C26.7012 9.72803 26.5183 9.83125 26.2794 10.2356C25.7731 11.0928 24.946 11.3219 24.0482 10.8537C23.5554 10.5967 23.5209 10.6063 22.9511 11.1586C22.3337 11.757 20.4251 12.0207 19.2457 11.6706Z" fill="white"/>
</svg>
