<svg width="48" height="48" viewBox="6 6 35 35" fill="none" xmlns="http://www.w3.org/2000/svg">
<path d="M34.7894 29.9519C33.8903 24.304 28.7244 19.7121 23.269 19.7121C17.3412 19.7121 12.1296 24.752 11.6267 30.9599C11.4286 33.3599 12.16 35.6319 13.6687 37.3439C15.162 39.0559 17.265 39.9999 19.5508 39.9999H26.6824C29.2578 39.9999 31.5131 38.9439 33.0522 37.0399C34.5913 35.1359 35.2008 32.6079 34.7894 29.9519Z" fill="#D4D6D8"/>
<path d="M21.3789 17.3761C23.8449 17.3761 25.8439 15.2772 25.8439 12.6881C25.8439 10.099 23.8449 8.00014 21.3789 8.00014C18.9131 8.00014 16.9141 10.099 16.9141 12.6881C16.9141 15.2772 18.9131 17.3761 21.3789 17.3761Z" fill="#D4D6D8"/>
<path d="M31.5284 19.2456C33.5819 19.2456 35.2466 17.4977 35.2466 15.3416C35.2466 13.1855 33.5819 11.4376 31.5284 11.4376C29.4748 11.4376 27.8102 13.1855 27.8102 15.3416C27.8102 17.4977 29.4748 19.2456 31.5284 19.2456Z" fill="#D4D6D8"/>
<path d="M37.0282 25.4897C38.6694 25.4897 39.9997 24.0927 39.9997 22.3695C39.9997 20.6465 38.6694 19.2496 37.0282 19.2496C35.3871 19.2496 34.0566 20.6465 34.0566 22.3695C34.0566 24.0927 35.3871 25.4897 37.0282 25.4897Z" fill="#D4D6D8"/>
<path d="M11.718 22.3707C13.7715 22.3707 15.4362 20.6228 15.4362 18.4666C15.4362 16.3106 13.7715 14.5627 11.718 14.5627C9.66452 14.5627 7.99982 16.3106 7.99982 18.4666C7.99982 20.6228 9.66452 22.3707 11.718 22.3707Z" fill="#D4D6D8"/>
</svg>
